<?xml version="1.0" encoding="UTF-8" standalone="no"?>
<!-- Created with Inkscape (http://www.inkscape.org/) -->

<svg
   width="202.2395mm"
   height="256.18698mm"
   viewBox="0 0 202.2395 256.18698"
   version="1.1"
   id="svg1"
   sodipodi:docname="Background.svg"
   inkscape:export-filename="Background.png"
   inkscape:export-xdpi="96"
   inkscape:export-ydpi="96"
   xml:space="preserve"
   inkscape:version="1.3.2 (091e20e, 2023-11-25, custom)"
   xmlns:inkscape="http://www.inkscape.org/namespaces/inkscape"
   xmlns:sodipodi="http://sodipodi.sourceforge.net/DTD/sodipodi-0.dtd"
   xmlns="http://www.w3.org/2000/svg"
   xmlns:svg="http://www.w3.org/2000/svg"><sodipodi:namedview
     id="namedview1"
     pagecolor="#ffffff"
     bordercolor="#000000"
     borderopacity="0.25"
     inkscape:showpageshadow="2"
     inkscape:pageopacity="0.0"
     inkscape:pagecheckerboard="0"
     inkscape:deskcolor="#d1d1d1"
     inkscape:document-units="mm"
     inkscape:export-bgcolor="#00000000"
     inkscape:zoom="0.65386545"
     inkscape:cx="290.57966"
     inkscape:cy="228.64031"
     inkscape:window-width="1360"
     inkscape:window-height="697"
     inkscape:window-x="-8"
     inkscape:window-y="-8"
     inkscape:window-maximized="1"
     inkscape:current-layer="layer1" /><defs
     id="defs1"><clipPath
       clipPathUnits="userSpaceOnUse"
       id="clipPath25"><rect
         style="fill:#ff0000;stroke:none;stroke-width:3;stroke-linecap:square;stroke-linejoin:miter;paint-order:stroke markers fill;stop-color:#000000"
         id="rect25-8"
         width="78"
         height="45.033199"
         x="763.61322"
         y="452.82422" /></clipPath></defs><g
     inkscape:label="Capa 1"
     inkscape:groupmode="layer"
     id="layer1"
     transform="translate(-1.0780605,-3.616)"><rect
       style="fill:#d4d4d4;fill-opacity:1;stroke:none;stroke-width:0.264583;stroke-linecap:square;stroke-dashoffset:2.70236;paint-order:fill markers stroke"
       id="rect6"
       width="202.2395"
       height="256.18698"
       x="1.0780605"
       y="3.6160028" /><g
       inkscape:label="Capa 1"
       id="layer1-6"
       transform="matrix(0.2982237,0,0,0.29772477,-4.3416391,-9.718585)"
       style="fill:#ababab;fill-opacity:1;stroke:none;stroke-width:3.356"><path
         style="fill:#ababab;fill-opacity:1;stroke:none;stroke-width:0.3356;stroke-linecap:round;stroke-linejoin:round;stroke-dasharray:none;stroke-opacity:1;paint-order:fill markers stroke"
         d="M 23.574825,66.664379 50.844285,119.39689 71.165678,44.448515 107.56604,118.18002 145.91372,45.189292 157.07848,118.77628 184.24605,71.360565 132.73313,118.32822 107.79451,80.753481 79.864402,119.41541 Z"
         id="path1"
         sodipodi:nodetypes="ccccccccccc" /></g><g
       inkscape:label="Capa 1"
       id="layer1-6-8"
       transform="matrix(0.2982237,0,0,0.29772477,46.220164,-9.718585)"
       style="fill:#ababab;fill-opacity:1;stroke:none;stroke-width:3.356"><path
         style="fill:#ababab;fill-opacity:1;stroke:none;stroke-width:0.3356;stroke-linecap:round;stroke-linejoin:round;stroke-dasharray:none;stroke-opacity:1;paint-order:fill markers stroke"
         d="M 23.574825,66.664379 50.844285,119.39689 71.165678,44.448515 107.56604,118.18002 145.91372,45.189292 157.07848,118.77628 184.24605,71.360565 132.73313,118.32822 107.79451,80.753481 79.864402,119.41541 Z"
         id="path1-1"
         sodipodi:nodetypes="ccccccccccc" /></g><g
       inkscape:label="Capa 1"
       id="layer1-6-5"
       transform="matrix(0.2982237,0,0,0.29772477,96.781966,-9.718585)"
       style="fill:#ababab;fill-opacity:1;stroke:none;stroke-width:3.356"><path
         style="fill:#ababab;fill-opacity:1;stroke:none;stroke-width:0.3356;stroke-linecap:round;stroke-linejoin:round;stroke-dasharray:none;stroke-opacity:1;paint-order:fill markers stroke"
         d="M 23.574825,66.664379 50.844285,119.39689 71.165678,44.448515 107.56604,118.18002 145.91372,45.189292 157.07848,118.77628 184.24605,71.360565 132.73313,118.32822 107.79451,80.753481 79.864402,119.41541 Z"
         id="path1-3"
         sodipodi:nodetypes="ccccccccccc" /></g><g
       inkscape:label="Capa 1"
       id="layer1-6-8-4"
       transform="matrix(0.2982237,0,0,0.29772477,147.34378,-9.718585)"
       style="fill:#ababab;fill-opacity:1;stroke:none;stroke-width:3.356"><path
         style="fill:#ababab;fill-opacity:1;stroke:none;stroke-width:0.3356;stroke-linecap:round;stroke-linejoin:round;stroke-dasharray:none;stroke-opacity:1;paint-order:fill markers stroke"
         d="M 23.574825,66.664379 50.844285,119.39689 71.165678,44.448515 107.56604,118.18002 145.91372,45.189292 157.07848,118.77628 184.24605,71.360565 132.73313,118.32822 107.79451,80.753481 79.864402,119.41541 Z"
         id="path1-1-1"
         sodipodi:nodetypes="ccccccccccc" /></g><g
       inkscape:label="Capa 1"
       id="layer1-6-58"
       transform="matrix(0.2982237,0,0,0.29772477,120.73996,19.088144)"
       style="fill:#ababab;fill-opacity:1;stroke:none;stroke-width:3.356"><path
         style="fill:#ababab;fill-opacity:1;stroke:none;stroke-width:0.3356;stroke-linecap:round;stroke-linejoin:round;stroke-dasharray:none;stroke-opacity:1;paint-order:fill markers stroke"
         d="M 23.574825,66.664379 50.844285,119.39689 71.165678,44.448515 107.56604,118.18002 145.91372,45.189292 157.07848,118.77628 184.24605,71.360565 132.73313,118.32822 107.79451,80.753481 79.864402,119.41541 Z"
         id="path1-9"
         sodipodi:nodetypes="ccccccccccc" /></g><g
       inkscape:label="Capa 1"
       id="layer1-6-58-1"
       transform="matrix(0.2982237,0,0,0.29772477,171.30177,19.088144)"
       style="fill:#ababab;fill-opacity:1;stroke:none;stroke-width:3.356"><path
         style="fill:#ababab;fill-opacity:1;stroke:none;stroke-width:0.3356;stroke-linecap:round;stroke-linejoin:round;stroke-dasharray:none;stroke-opacity:1;paint-order:fill markers stroke"
         d="M 23.574825,66.664379 50.844285,119.39689 71.165678,44.448515 107.56604,118.18002 145.91372,45.189292 157.07848,118.77628 184.24605,71.360565 132.73313,118.32822 107.79451,80.753481 79.864402,119.41541 Z"
         id="path1-9-0"
         sodipodi:nodetypes="ccccccccccc" /></g><g
       inkscape:label="Capa 1"
       id="layer1-6-8-3"
       transform="matrix(0.2982237,0,0,0.29772477,-30.945469,19.088144)"
       style="fill:#ababab;fill-opacity:1;stroke:none;stroke-width:3.356"><path
         style="fill:#ababab;fill-opacity:1;stroke:none;stroke-width:0.3356;stroke-linecap:round;stroke-linejoin:round;stroke-dasharray:none;stroke-opacity:1;paint-order:fill markers stroke"
         d="M 23.574825,66.664379 50.844285,119.39689 71.165678,44.448515 107.56604,118.18002 145.91372,45.189292 157.07848,118.77628 184.24605,71.360565 132.73313,118.32822 107.79451,80.753481 79.864402,119.41541 Z"
         id="path1-1-8"
         sodipodi:nodetypes="ccccccccccc" /></g><g
       inkscape:label="Capa 1"
       id="layer1-6-5-2"
       transform="matrix(0.2982237,0,0,0.29772477,19.616333,19.088144)"
       style="fill:#ababab;fill-opacity:1;stroke:none;stroke-width:3.356"><path
         style="fill:#ababab;fill-opacity:1;stroke:none;stroke-width:0.3356;stroke-linecap:round;stroke-linejoin:round;stroke-dasharray:none;stroke-opacity:1;paint-order:fill markers stroke"
         d="M 23.574825,66.664379 50.844285,119.39689 71.165678,44.448515 107.56604,118.18002 145.91372,45.189292 157.07848,118.77628 184.24605,71.360565 132.73313,118.32822 107.79451,80.753481 79.864402,119.41541 Z"
         id="path1-3-8"
         sodipodi:nodetypes="ccccccccccc" /></g><g
       inkscape:label="Capa 1"
       id="layer1-6-8-4-8"
       transform="matrix(0.2982237,0,0,0.29772477,70.178148,19.088144)"
       style="fill:#ababab;fill-opacity:1;stroke:none;stroke-width:3.356"><path
         style="fill:#ababab;fill-opacity:1;stroke:none;stroke-width:0.3356;stroke-linecap:round;stroke-linejoin:round;stroke-dasharray:none;stroke-opacity:1;paint-order:fill markers stroke"
         d="M 23.574825,66.664379 50.844285,119.39689 71.165678,44.448515 107.56604,118.18002 145.91372,45.189292 157.07848,118.77628 184.24605,71.360565 132.73313,118.32822 107.79451,80.753481 79.864402,119.41541 Z"
         id="path1-1-1-9"
         sodipodi:nodetypes="ccccccccccc" /></g><g
       inkscape:label="Capa 1"
       id="layer1-6-4"
       transform="matrix(0.2982237,0,0,0.29772477,-4.5594111,47.894873)"
       style="fill:#ababab;fill-opacity:1;stroke:none;stroke-width:3.356"><path
         style="fill:#ababab;fill-opacity:1;stroke:none;stroke-width:0.3356;stroke-linecap:round;stroke-linejoin:round;stroke-dasharray:none;stroke-opacity:1;paint-order:fill markers stroke"
         d="M 23.574825,66.664379 50.844285,119.39689 71.165678,44.448515 107.56604,118.18002 145.91372,45.189292 157.07848,118.77628 184.24605,71.360565 132.73313,118.32822 107.79451,80.753481 79.864402,119.41541 Z"
         id="path1-6"
         sodipodi:nodetypes="ccccccccccc" /></g><g
       inkscape:label="Capa 1"
       id="layer1-6-8-0"
       transform="matrix(0.2982237,0,0,0.29772477,46.002391,47.894873)"
       style="fill:#ababab;fill-opacity:1;stroke:none;stroke-width:3.356"><path
         style="fill:#ababab;fill-opacity:1;stroke:none;stroke-width:0.3356;stroke-linecap:round;stroke-linejoin:round;stroke-dasharray:none;stroke-opacity:1;paint-order:fill markers stroke"
         d="M 23.574825,66.664379 50.844285,119.39689 71.165678,44.448515 107.56604,118.18002 145.91372,45.189292 157.07848,118.77628 184.24605,71.360565 132.73313,118.32822 107.79451,80.753481 79.864402,119.41541 Z"
         id="path1-1-85"
         sodipodi:nodetypes="ccccccccccc" /></g><g
       inkscape:label="Capa 1"
       id="layer1-6-5-5"
       transform="matrix(0.2982237,0,0,0.29772477,96.564195,47.894873)"
       style="fill:#ababab;fill-opacity:1;stroke:none;stroke-width:3.356"><path
         style="fill:#ababab;fill-opacity:1;stroke:none;stroke-width:0.3356;stroke-linecap:round;stroke-linejoin:round;stroke-dasharray:none;stroke-opacity:1;paint-order:fill markers stroke"
         d="M 23.574825,66.664379 50.844285,119.39689 71.165678,44.448515 107.56604,118.18002 145.91372,45.189292 157.07848,118.77628 184.24605,71.360565 132.73313,118.32822 107.79451,80.753481 79.864402,119.41541 Z"
         id="path1-3-0"
         sodipodi:nodetypes="ccccccccccc" /></g><g
       inkscape:label="Capa 1"
       id="layer1-6-8-4-0"
       transform="matrix(0.2982237,0,0,0.29772477,147.12605,47.894873)"
       style="fill:#ababab;fill-opacity:1;stroke:none;stroke-width:3.356"><path
         style="fill:#ababab;fill-opacity:1;stroke:none;stroke-width:0.3356;stroke-linecap:round;stroke-linejoin:round;stroke-dasharray:none;stroke-opacity:1;paint-order:fill markers stroke"
         d="M 23.574825,66.664379 50.844285,119.39689 71.165678,44.448515 107.56604,118.18002 145.91372,45.189292 157.07848,118.77628 184.24605,71.360565 132.73313,118.32822 107.79451,80.753481 79.864402,119.41541 Z"
         id="path1-1-1-6"
         sodipodi:nodetypes="ccccccccccc" /></g><g
       inkscape:label="Capa 1"
       id="layer1-6-58-9"
       transform="matrix(0.2982237,0,0,0.29772477,120.60289,76.701598)"
       style="fill:#ababab;fill-opacity:1;stroke:none;stroke-width:3.356"><path
         style="fill:#ababab;fill-opacity:1;stroke:none;stroke-width:0.3356;stroke-linecap:round;stroke-linejoin:round;stroke-dasharray:none;stroke-opacity:1;paint-order:fill markers stroke"
         d="M 23.574825,66.664379 50.844285,119.39689 71.165678,44.448515 107.56604,118.18002 145.91372,45.189292 157.07848,118.77628 184.24605,71.360565 132.73313,118.32822 107.79451,80.753481 79.864402,119.41541 Z"
         id="path1-9-2"
         sodipodi:nodetypes="ccccccccccc" /></g><g
       inkscape:label="Capa 1"
       id="layer1-6-58-1-0"
       transform="matrix(0.2982237,0,0,0.29772477,171.1647,76.701598)"
       style="fill:#ababab;fill-opacity:1;stroke:none;stroke-width:3.356"><path
         style="fill:#ababab;fill-opacity:1;stroke:none;stroke-width:0.3356;stroke-linecap:round;stroke-linejoin:round;stroke-dasharray:none;stroke-opacity:1;paint-order:fill markers stroke"
         d="M 23.574825,66.664379 50.844285,119.39689 71.165678,44.448515 107.56604,118.18002 145.91372,45.189292 157.07848,118.77628 184.24605,71.360565 132.73313,118.32822 107.79451,80.753481 79.864402,119.41541 Z"
         id="path1-9-0-9"
         sodipodi:nodetypes="ccccccccccc" /></g><g
       inkscape:label="Capa 1"
       id="layer1-6-8-3-6"
       transform="matrix(0.2982237,0,0,0.29772477,-31.08253,76.701598)"
       style="fill:#ababab;fill-opacity:1;stroke:none;stroke-width:3.356"><path
         style="fill:#ababab;fill-opacity:1;stroke:none;stroke-width:0.3356;stroke-linecap:round;stroke-linejoin:round;stroke-dasharray:none;stroke-opacity:1;paint-order:fill markers stroke"
         d="M 23.574825,66.664379 50.844285,119.39689 71.165678,44.448515 107.56604,118.18002 145.91372,45.189292 157.07848,118.77628 184.24605,71.360565 132.73313,118.32822 107.79451,80.753481 79.864402,119.41541 Z"
         id="path1-1-8-1"
         sodipodi:nodetypes="ccccccccccc" /></g><g
       inkscape:label="Capa 1"
       id="layer1-6-5-2-2"
       transform="matrix(0.2982237,0,0,0.29772477,19.479272,76.701598)"
       style="fill:#ababab;fill-opacity:1;stroke:none;stroke-width:3.356"><path
         style="fill:#ababab;fill-opacity:1;stroke:none;stroke-width:0.3356;stroke-linecap:round;stroke-linejoin:round;stroke-dasharray:none;stroke-opacity:1;paint-order:fill markers stroke"
         d="M 23.574825,66.664379 50.844285,119.39689 71.165678,44.448515 107.56604,118.18002 145.91372,45.189292 157.07848,118.77628 184.24605,71.360565 132.73313,118.32822 107.79451,80.753481 79.864402,119.41541 Z"
         id="path1-3-8-6"
         sodipodi:nodetypes="ccccccccccc" /></g><g
       inkscape:label="Capa 1"
       id="layer1-6-8-4-8-0"
       transform="matrix(0.2982237,0,0,0.29772477,70.041087,76.701598)"
       style="fill:#ababab;fill-opacity:1;stroke:none;stroke-width:3.356"><path
         style="fill:#ababab;fill-opacity:1;stroke:none;stroke-width:0.3356;stroke-linecap:round;stroke-linejoin:round;stroke-dasharray:none;stroke-opacity:1;paint-order:fill markers stroke"
         d="M 23.574825,66.664379 50.844285,119.39689 71.165678,44.448515 107.56604,118.18002 145.91372,45.189292 157.07848,118.77628 184.24605,71.360565 132.73313,118.32822 107.79451,80.753481 79.864402,119.41541 Z"
         id="path1-1-1-9-3"
         sodipodi:nodetypes="ccccccccccc" /></g><g
       inkscape:label="Capa 1"
       id="layer1-6-42"
       transform="matrix(0.2982237,0,0,0.29772477,-4.5283313,105.50832)"
       style="fill:#ababab;fill-opacity:1;stroke:none;stroke-width:3.356"><path
         style="fill:#ababab;fill-opacity:1;stroke:none;stroke-width:0.3356;stroke-linecap:round;stroke-linejoin:round;stroke-dasharray:none;stroke-opacity:1;paint-order:fill markers stroke"
         d="M 23.574825,66.664379 50.844285,119.39689 71.165678,44.448515 107.56604,118.18002 145.91372,45.189292 157.07848,118.77628 184.24605,71.360565 132.73313,118.32822 107.79451,80.753481 79.864402,119.41541 Z"
         id="path1-2"
         sodipodi:nodetypes="ccccccccccc" /></g><g
       inkscape:label="Capa 1"
       id="layer1-6-8-8"
       transform="matrix(0.2982237,0,0,0.29772477,46.033472,105.50832)"
       style="fill:#ababab;fill-opacity:1;stroke:none;stroke-width:3.356"><path
         style="fill:#ababab;fill-opacity:1;stroke:none;stroke-width:0.3356;stroke-linecap:round;stroke-linejoin:round;stroke-dasharray:none;stroke-opacity:1;paint-order:fill markers stroke"
         d="M 23.574825,66.664379 50.844285,119.39689 71.165678,44.448515 107.56604,118.18002 145.91372,45.189292 157.07848,118.77628 184.24605,71.360565 132.73313,118.32822 107.79451,80.753481 79.864402,119.41541 Z"
         id="path1-1-14"
         sodipodi:nodetypes="ccccccccccc" /></g><g
       inkscape:label="Capa 1"
       id="layer1-6-5-3"
       transform="matrix(0.2982237,0,0,0.29772477,96.595274,105.50832)"
       style="fill:#ababab;fill-opacity:1;stroke:none;stroke-width:3.356"><path
         style="fill:#ababab;fill-opacity:1;stroke:none;stroke-width:0.3356;stroke-linecap:round;stroke-linejoin:round;stroke-dasharray:none;stroke-opacity:1;paint-order:fill markers stroke"
         d="M 23.574825,66.664379 50.844285,119.39689 71.165678,44.448515 107.56604,118.18002 145.91372,45.189292 157.07848,118.77628 184.24605,71.360565 132.73313,118.32822 107.79451,80.753481 79.864402,119.41541 Z"
         id="path1-3-4"
         sodipodi:nodetypes="ccccccccccc" /></g><g
       inkscape:label="Capa 1"
       id="layer1-6-8-4-5"
       transform="matrix(0.2982237,0,0,0.29772477,147.15712,105.50832)"
       style="fill:#ababab;fill-opacity:1;stroke:none;stroke-width:3.356"><path
         style="fill:#ababab;fill-opacity:1;stroke:none;stroke-width:0.3356;stroke-linecap:round;stroke-linejoin:round;stroke-dasharray:none;stroke-opacity:1;paint-order:fill markers stroke"
         d="M 23.574825,66.664379 50.844285,119.39689 71.165678,44.448515 107.56604,118.18002 145.91372,45.189292 157.07848,118.77628 184.24605,71.360565 132.73313,118.32822 107.79451,80.753481 79.864402,119.41541 Z"
         id="path1-1-1-5"
         sodipodi:nodetypes="ccccccccccc" /></g><g
       inkscape:label="Capa 1"
       id="layer1-6-58-4"
       transform="matrix(0.2982237,0,0,0.29772477,120.6388,134.31505)"
       style="fill:#ababab;fill-opacity:1;stroke:none;stroke-width:3.356"><path
         style="fill:#ababab;fill-opacity:1;stroke:none;stroke-width:0.3356;stroke-linecap:round;stroke-linejoin:round;stroke-dasharray:none;stroke-opacity:1;paint-order:fill markers stroke"
         d="M 23.574825,66.664379 50.844285,119.39689 71.165678,44.448515 107.56604,118.18002 145.91372,45.189292 157.07848,118.77628 184.24605,71.360565 132.73313,118.32822 107.79451,80.753481 79.864402,119.41541 Z"
         id="path1-9-3"
         sodipodi:nodetypes="ccccccccccc" /></g><g
       inkscape:label="Capa 1"
       id="layer1-6-58-1-7"
       transform="matrix(0.2982237,0,0,0.29772477,171.20061,134.31505)"
       style="fill:#ababab;fill-opacity:1;stroke:none;stroke-width:3.356"><path
         style="fill:#ababab;fill-opacity:1;stroke:none;stroke-width:0.3356;stroke-linecap:round;stroke-linejoin:round;stroke-dasharray:none;stroke-opacity:1;paint-order:fill markers stroke"
         d="M 23.574825,66.664379 50.844285,119.39689 71.165678,44.448515 107.56604,118.18002 145.91372,45.189292 157.07848,118.77628 184.24605,71.360565 132.73313,118.32822 107.79451,80.753481 79.864402,119.41541 Z"
         id="path1-9-0-8"
         sodipodi:nodetypes="ccccccccccc" /></g><g
       inkscape:label="Capa 1"
       id="layer1-6-8-3-9"
       transform="matrix(0.2982237,0,0,0.29772477,-30.945469,134.31505)"
       style="fill:#ababab;fill-opacity:1;stroke:none;stroke-width:3.356"><path
         style="fill:#ababab;fill-opacity:1;stroke:none;stroke-width:0.3356;stroke-linecap:round;stroke-linejoin:round;stroke-dasharray:none;stroke-opacity:1;paint-order:fill markers stroke"
         d="M 23.574825,66.664379 50.844285,119.39689 71.165678,44.448515 107.56604,118.18002 145.91372,45.189292 157.07848,118.77628 184.24605,71.360565 132.73313,118.32822 107.79451,80.753481 79.864402,119.41541 Z"
         id="path1-1-8-10"
         sodipodi:nodetypes="ccccccccccc" /></g><g
       inkscape:label="Capa 1"
       id="layer1-6-5-2-9"
       transform="matrix(0.2982237,0,0,0.29772477,19.515172,134.31505)"
       style="fill:#ababab;fill-opacity:1;stroke:none;stroke-width:3.356"><path
         style="fill:#ababab;fill-opacity:1;stroke:none;stroke-width:0.3356;stroke-linecap:round;stroke-linejoin:round;stroke-dasharray:none;stroke-opacity:1;paint-order:fill markers stroke"
         d="M 23.574825,66.664379 50.844285,119.39689 71.165678,44.448515 107.56604,118.18002 145.91372,45.189292 157.07848,118.77628 184.24605,71.360565 132.73313,118.32822 107.79451,80.753481 79.864402,119.41541 Z"
         id="path1-3-8-2"
         sodipodi:nodetypes="ccccccccccc" /></g><g
       inkscape:label="Capa 1"
       id="layer1-6-8-4-8-1"
       transform="matrix(0.2982237,0,0,0.29772477,70.076987,134.31505)"
       style="fill:#ababab;fill-opacity:1;stroke:none;stroke-width:3.356"><path
         style="fill:#ababab;fill-opacity:1;stroke:none;stroke-width:0.3356;stroke-linecap:round;stroke-linejoin:round;stroke-dasharray:none;stroke-opacity:1;paint-order:fill markers stroke"
         d="M 23.574825,66.664379 50.844285,119.39689 71.165678,44.448515 107.56604,118.18002 145.91372,45.189292 157.07848,118.77628 184.24605,71.360565 132.73313,118.32822 107.79451,80.753481 79.864402,119.41541 Z"
         id="path1-1-1-9-5"
         sodipodi:nodetypes="ccccccccccc" /></g><g
       inkscape:label="Capa 1"
       id="layer1-6-7"
       transform="matrix(0.2982237,0,0,0.29772477,-4.5283313,163.12178)"
       style="fill:#ababab;fill-opacity:1;stroke:none;stroke-width:3.356"><path
         style="fill:#ababab;fill-opacity:1;stroke:none;stroke-width:0.3356;stroke-linecap:round;stroke-linejoin:round;stroke-dasharray:none;stroke-opacity:1;paint-order:fill markers stroke"
         d="M 23.574825,66.664379 50.844285,119.39689 71.165678,44.448515 107.56604,118.18002 145.91372,45.189292 157.07848,118.77628 184.24605,71.360565 132.73313,118.32822 107.79451,80.753481 79.864402,119.41541 Z"
         id="path1-5"
         sodipodi:nodetypes="ccccccccccc" /></g><g
       inkscape:label="Capa 1"
       id="layer1-6-8-1"
       transform="matrix(0.2982237,0,0,0.29772477,46.033472,163.12178)"
       style="fill:#ababab;fill-opacity:1;stroke:none;stroke-width:3.356"><path
         style="fill:#ababab;fill-opacity:1;stroke:none;stroke-width:0.3356;stroke-linecap:round;stroke-linejoin:round;stroke-dasharray:none;stroke-opacity:1;paint-order:fill markers stroke"
         d="M 23.574825,66.664379 50.844285,119.39689 71.165678,44.448515 107.56604,118.18002 145.91372,45.189292 157.07848,118.77628 184.24605,71.360565 132.73313,118.32822 107.79451,80.753481 79.864402,119.41541 Z"
         id="path1-1-7"
         sodipodi:nodetypes="ccccccccccc" /></g><g
       inkscape:label="Capa 1"
       id="layer1-6-5-9"
       transform="matrix(0.2982237,0,0,0.29772477,96.595274,163.12178)"
       style="fill:#ababab;fill-opacity:1;stroke:none;stroke-width:3.356"><path
         style="fill:#ababab;fill-opacity:1;stroke:none;stroke-width:0.3356;stroke-linecap:round;stroke-linejoin:round;stroke-dasharray:none;stroke-opacity:1;paint-order:fill markers stroke"
         d="M 23.574825,66.664379 50.844285,119.39689 71.165678,44.448515 107.56604,118.18002 145.91372,45.189292 157.07848,118.77628 184.24605,71.360565 132.73313,118.32822 107.79451,80.753481 79.864402,119.41541 Z"
         id="path1-3-80"
         sodipodi:nodetypes="ccccccccccc" /></g><g
       inkscape:label="Capa 1"
       id="layer1-6-8-4-6"
       transform="matrix(0.2982237,0,0,0.29772477,147.15712,163.12178)"
       style="fill:#ababab;fill-opacity:1;stroke:none;stroke-width:3.356"><path
         style="fill:#ababab;fill-opacity:1;stroke:none;stroke-width:0.3356;stroke-linecap:round;stroke-linejoin:round;stroke-dasharray:none;stroke-opacity:1;paint-order:fill markers stroke"
         d="M 23.574825,66.664379 50.844285,119.39689 71.165678,44.448515 107.56604,118.18002 145.91372,45.189292 157.07848,118.77628 184.24605,71.360565 132.73313,118.32822 107.79451,80.753481 79.864402,119.41541 Z"
         id="path1-1-1-63"
         sodipodi:nodetypes="ccccccccccc" /></g><g
       inkscape:label="Capa 1"
       id="layer1-6-58-2"
       transform="matrix(0.2982237,0,0,0.29772477,120.73996,191.92851)"
       style="fill:#ababab;fill-opacity:1;stroke:none;stroke-width:3.356"><path
         style="fill:#ababab;fill-opacity:1;stroke:none;stroke-width:0.3356;stroke-linecap:round;stroke-linejoin:round;stroke-dasharray:none;stroke-opacity:1;paint-order:fill markers stroke"
         d="M 23.574825,66.664379 50.844285,119.39689 71.165678,44.448515 107.56604,118.18002 145.91372,45.189292 157.07848,118.77628 184.24605,71.360565 132.73313,118.32822 107.79451,80.753481 79.864402,119.41541 Z"
         id="path1-9-8"
         sodipodi:nodetypes="ccccccccccc" /></g><g
       inkscape:label="Capa 1"
       id="layer1-6-58-1-5"
       transform="matrix(0.2982237,0,0,0.29772477,171.30177,191.92851)"
       style="fill:#ababab;fill-opacity:1;stroke:none;stroke-width:3.356"><path
         style="fill:#ababab;fill-opacity:1;stroke:none;stroke-width:0.3356;stroke-linecap:round;stroke-linejoin:round;stroke-dasharray:none;stroke-opacity:1;paint-order:fill markers stroke"
         d="M 23.574825,66.664379 50.844285,119.39689 71.165678,44.448515 107.56604,118.18002 145.91372,45.189292 157.07848,118.77628 184.24605,71.360565 132.73313,118.32822 107.79451,80.753481 79.864402,119.41541 Z"
         id="path1-9-0-6"
         sodipodi:nodetypes="ccccccccccc" /></g><g
       inkscape:label="Capa 1"
       id="layer1-6-8-3-95"
       transform="matrix(0.2982237,0,0,0.29772477,-30.945469,191.92851)"
       style="fill:#ababab;fill-opacity:1;stroke:none;stroke-width:3.356"><path
         style="fill:#ababab;fill-opacity:1;stroke:none;stroke-width:0.3356;stroke-linecap:round;stroke-linejoin:round;stroke-dasharray:none;stroke-opacity:1;paint-order:fill markers stroke"
         d="M 23.574825,66.664379 50.844285,119.39689 71.165678,44.448515 107.56604,118.18002 145.91372,45.189292 157.07848,118.77628 184.24605,71.360565 132.73313,118.32822 107.79451,80.753481 79.864402,119.41541 Z"
         id="path1-1-8-5"
         sodipodi:nodetypes="ccccccccccc" /></g><g
       inkscape:label="Capa 1"
       id="layer1-6-5-2-8"
       transform="matrix(0.2982237,0,0,0.29772477,19.616333,191.92851)"
       style="fill:#ababab;fill-opacity:1;stroke:none;stroke-width:3.356"><path
         style="fill:#ababab;fill-opacity:1;stroke:none;stroke-width:0.3356;stroke-linecap:round;stroke-linejoin:round;stroke-dasharray:none;stroke-opacity:1;paint-order:fill markers stroke"
         d="M 23.574825,66.664379 50.844285,119.39689 71.165678,44.448515 107.56604,118.18002 145.91372,45.189292 157.07848,118.77628 184.24605,71.360565 132.73313,118.32822 107.79451,80.753481 79.864402,119.41541 Z"
         id="path1-3-8-3"
         sodipodi:nodetypes="ccccccccccc" /></g><g
       inkscape:label="Capa 1"
       id="layer1-6-8-4-8-9"
       transform="matrix(0.2982237,0,0,0.29772477,70.178148,191.92851)"
       style="fill:#ababab;fill-opacity:1;stroke:none;stroke-width:3.356"><path
         style="fill:#ababab;fill-opacity:1;stroke:none;stroke-width:0.3356;stroke-linecap:round;stroke-linejoin:round;stroke-dasharray:none;stroke-opacity:1;paint-order:fill markers stroke"
         d="M 23.574825,66.664379 50.844285,119.39689 71.165678,44.448515 107.56604,118.18002 145.91372,45.189292 157.07848,118.77628 184.24605,71.360565 132.73313,118.32822 107.79451,80.753481 79.864402,119.41541 Z"
         id="path1-1-1-9-0"
         sodipodi:nodetypes="ccccccccccc" /></g><g
       inkscape:label="Capa 1"
       id="layer1-6-44"
       transform="matrix(0.2982237,0,0,0.29772477,-4.5283317,220.73524)"
       style="fill:#ababab;fill-opacity:1;stroke:none;stroke-width:3.356"><path
         style="fill:#ababab;fill-opacity:1;stroke:none;stroke-width:0.3356;stroke-linecap:round;stroke-linejoin:round;stroke-dasharray:none;stroke-opacity:1;paint-order:fill markers stroke"
         d="M 23.574825,66.664379 50.844285,119.39689 71.165678,44.448515 107.56604,118.18002 145.91372,45.189292 157.07848,118.77628 184.24605,71.360565 132.73313,118.32822 107.79451,80.753481 79.864402,119.41541 Z"
         id="path1-8"
         sodipodi:nodetypes="ccccccccccc" /></g><g
       inkscape:label="Capa 1"
       id="layer1-6-8-86"
       transform="matrix(0.2982237,0,0,0.29772477,46.033472,220.73524)"
       style="fill:#ababab;fill-opacity:1;stroke:none;stroke-width:3.356"><path
         style="fill:#ababab;fill-opacity:1;stroke:none;stroke-width:0.3356;stroke-linecap:round;stroke-linejoin:round;stroke-dasharray:none;stroke-opacity:1;paint-order:fill markers stroke"
         d="M 23.574825,66.664379 50.844285,119.39689 71.165678,44.448515 107.56604,118.18002 145.91372,45.189292 157.07848,118.77628 184.24605,71.360565 132.73313,118.32822 107.79451,80.753481 79.864402,119.41541 Z"
         id="path1-1-83"
         sodipodi:nodetypes="ccccccccccc" /></g><g
       inkscape:label="Capa 1"
       id="layer1-6-5-95"
       transform="matrix(0.2982237,0,0,0.29772477,96.59527,220.73524)"
       style="fill:#ababab;fill-opacity:1;stroke:none;stroke-width:3.356"><path
         style="fill:#ababab;fill-opacity:1;stroke:none;stroke-width:0.3356;stroke-linecap:round;stroke-linejoin:round;stroke-dasharray:none;stroke-opacity:1;paint-order:fill markers stroke"
         d="M 23.574825,66.664379 50.844285,119.39689 71.165678,44.448515 107.56604,118.18002 145.91372,45.189292 157.07848,118.77628 184.24605,71.360565 132.73313,118.32822 107.79451,80.753481 79.864402,119.41541 Z"
         id="path1-3-7"
         sodipodi:nodetypes="ccccccccccc" /></g><g
       inkscape:label="Capa 1"
       id="layer1-6-8-4-1"
       transform="matrix(0.2982237,0,0,0.29772477,147.15712,220.73524)"
       style="fill:#ababab;fill-opacity:1;stroke:none;stroke-width:3.356"><path
         style="fill:#ababab;fill-opacity:1;stroke:none;stroke-width:0.3356;stroke-linecap:round;stroke-linejoin:round;stroke-dasharray:none;stroke-opacity:1;paint-order:fill markers stroke"
         d="M 23.574825,66.664379 50.844285,119.39689 71.165678,44.448515 107.56604,118.18002 145.91372,45.189292 157.07848,118.77628 184.24605,71.360565 132.73313,118.32822 107.79451,80.753481 79.864402,119.41541 Z"
         id="path1-1-1-4"
         sodipodi:nodetypes="ccccccccccc" /></g></g></svg>
