<?xml version="1.0" encoding="UTF-8" standalone="no"?>
<!-- Created with Inkscape (http://www.inkscape.org/) -->

<svg
   width="179.09827mm"
   height="55.402256mm"
   viewBox="0 0 179.09827 55.402255"
   version="1.1"
   id="svg1"
   sodipodi:docname="image1.svg"
   inkscape:export-filename="image1.png"
   inkscape:export-xdpi="96"
   inkscape:export-ydpi="96"
   inkscape:version="1.3.2 (091e20e, 2023-11-25, custom)"
   xmlns:inkscape="http://www.inkscape.org/namespaces/inkscape"
   xmlns:sodipodi="http://sodipodi.sourceforge.net/DTD/sodipodi-0.dtd"
   xmlns="http://www.w3.org/2000/svg"
   xmlns:svg="http://www.w3.org/2000/svg">
  <sodipodi:namedview
     id="namedview1"
     pagecolor="#ffffff"
     bordercolor="#000000"
     borderopacity="0.25"
     inkscape:showpageshadow="2"
     inkscape:pageopacity="0.0"
     inkscape:pagecheckerboard="0"
     inkscape:deskcolor="#d1d1d1"
     inkscape:document-units="mm"
     inkscape:zoom="0.84058835"
     inkscape:cx="338.45342"
     inkscape:cy="105.2834"
     inkscape:window-width="1360"
     inkscape:window-height="697"
     inkscape:window-x="-32000"
     inkscape:window-y="-32000"
     inkscape:window-maximized="0"
     inkscape:current-layer="layer1" />
  <defs
     id="defs1" />
  <g
     inkscape:label="Capa 1"
     inkscape:groupmode="layer"
     id="layer1">
    <text
       xml:space="preserve"
       style="font-size:11.0688px;line-height:1;font-family:Broadway;-inkscape-font-specification:Broadway;text-align:center;letter-spacing:0.444136px;word-spacing:-0.682808px;text-anchor:middle;display:inline;fill:#ffffff;fill-opacity:1;stroke:none;stroke-width:2.15;stroke-linecap:square;stroke-dasharray:none;stroke-dashoffset:0;stroke-opacity:1;paint-order:fill markers stroke"
       x="120.16227"
       y="24.337526"
       id="text11"><tspan
         sodipodi:role="line"
         id="tspan11"
         style="fill:#ffffff;fill-opacity:1;stroke:none;stroke-width:2.15;stroke-dasharray:none"
         x="120.38434"
         y="24.337526">Confecciones Leny</tspan></text>
    <text
       xml:space="preserve"
       style="font-style:normal;font-variant:normal;font-weight:normal;font-stretch:normal;font-size:8.01828px;line-height:1;font-family:'Britannic Bold';-inkscape-font-specification:'Britannic Bold, ';text-align:center;letter-spacing:0.321735px;word-spacing:-0.494631px;text-anchor:middle;display:inline;fill:#ffffff;fill-opacity:1;stroke:none;stroke-width:2.15;stroke-linecap:square;stroke-dasharray:none;stroke-dashoffset:0;stroke-opacity:1;paint-order:fill markers stroke"
       x="101.85956"
       y="38.461056"
       id="text12"
       transform="scale(1.0823328,0.92393025)"><tspan
         sodipodi:role="line"
         id="tspan12"
         style="font-style:normal;font-variant:normal;font-weight:normal;font-stretch:normal;font-family:'Britannic Bold';-inkscape-font-specification:'Britannic Bold, ';stroke-width:2.15;fill:#ffffff;fill-opacity:1"
         x="102.02042"
         y="38.461056">¡El mundo a tu medida!</tspan></text>
    <path
       id="path146"
       style="display:inline;fill:#ffffff;stroke-width:0.661459;stroke-linecap:round;stroke-linejoin:bevel;fill-opacity:1"
       d="m 50.193775,0.00221979 c -0.672312,0.171193 -1.179803,0.710282 -1.700694,1.14162301 -2.157012,2.08461 -3.976466,4.481953 -5.924709,6.755134 -0.521651,0.62304 -1.048879,1.241451 -1.586519,1.850767 -5.150457,-2.921627 -10.300914,-5.843248 -15.451366,-8.76487701 -0.45028,-0.06201 -0.968112,-0.118694 -1.349491,0.18849701 -7.431981,4.210598 -14.8639597,8.421201 -22.2959377,12.6318042 -0.28499,0.361861 -0.603729,0.7874 -0.525177,1.278613 -0.02873,8.38064 -0.05746,16.761326 -0.08618,25.141996 0.17526,0.42826 0.38792,0.92042 0.857966,1.09267 2.130976,1.2024 4.261953,2.40478 6.39293,3.60718 -2.445359,2.70985 -4.943826,5.37534 -7.266899,8.19193 -0.43170103,0.61204 -0.94715003,1.1961 -1.24780303,1.88184 -0.09013,0.40961 0.458572,0.51342 0.707232,0.28128 1.51038903,-1.01793 2.75700503,-2.37026 4.04920903,-3.64221 1.853188,-1.89132 3.681248,-3.80706 5.5069677,-5.72486 4.78414,2.6997 9.56828,5.39941 14.35242,8.09911 0.449581,0.0616 0.966796,0.11578 1.347132,-0.19102 7.397914,-4.20301 14.795823,-8.40601 22.193738,-12.60901 0.283619,-0.3641 0.6047,-0.79055 0.523306,-1.28288 -0.01224,-8.40876 -0.02453,-16.817545 -0.03676,-25.22628 -0.175254,-0.42602 -0.388535,-0.914321 -0.855417,-1.086998 -1.63748,-0.92866 -3.274954,-1.857321 -4.912435,-2.785976 1.612041,-1.7159202 3.320127,-3.3387052 4.901816,-5.0838292 1.1385,-1.253282 2.341717,-2.473199 3.257043,-3.905107 0.347111,-0.510539 0.460168,-1.38283601 -0.164307,-1.72950301 -0.21321,-0.09542 -0.454765,-0.120366 -0.68604,-0.109894 z M 49.227132,2.0539358 c -1.341641,1.635154 -2.794384,3.185215 -4.222932,4.747867 1.332017,-1.650635 2.764836,-3.200077 4.211193,-4.759601 z m -9.679241,9.2599352 c -5.75572,6.304373 -11.565974,12.558658 -17.367582,18.820776 -2.246816,0.0345 -4.541322,-0.0832 -6.699289,-0.6423 -0.379282,-0.10558 -0.754573,-0.22544 -1.122416,-0.36597 1.21962,-1.45068 2.413377,-2.923598 3.612644,-4.393651 1.93453,0.601051 3.98359,-0.136082 5.6526,-1.125363 2.86676,-1.733067 5.194181,-4.223461 7.217274,-6.864016 1.323265,-1.810271 2.617299,-3.705188 3.314822,-5.855644 0.251908,-0.7959 0.339426,-1.8831442 -0.45164,-2.4103772 -0.855417,-0.539547 -1.893687,-0.05657 -2.680553,0.382324 -2.052575,1.2228342 -3.815195,2.8639572 -5.544629,4.4966422 -3.027764,2.96819 -5.73589,6.238229 -8.45318,9.486887 -1.536263,-1.167414 -1.49874,-3.751511 -0.02348,-4.947381 0.593547,-0.500373 1.492062,-0.342779 2.012349,0.186061 0.234833,0.175167 0.398647,0.614424 0.656823,0.215798 0.383603,-0.156277 -0.05069,-0.411167 -0.185346,-0.602443 -0.661464,-0.743306 -1.809792,-1.080219 -2.712916,-0.578223 -1.530194,0.836871 -2.169389,2.802759 -1.813777,4.451825 0.183462,0.847141 0.651132,1.624075 1.30028,2.196195 -1.210191,1.462997 -2.41731,2.925238 -3.652122,4.369106 -0.903642,-0.72122 -1.186901,-1.966206 -0.944155,-3.060819 0.106537,-0.474458 0.309613,-1.056422 -0.0641,-1.503535 -0.476689,-0.693529 -1.579473,-0.67176 -2.0759537,-0.0112 -0.749031,0.972433 -1.047863,2.19849 -1.435404,3.34284 -0.527973,1.801354 -1.046246,3.619964 -1.296687,5.483504 -0.09129,0.81063 0.148937,1.82536 1.011888,2.11672 0.980091,0.31125 1.86867,-0.42076 2.5620837,-1.02025 0.879195,-0.79254 1.678447,-1.6693 2.455714,-2.56042 2.274529,1.05911 4.817144,1.3362 7.296773,1.43932 -0.702448,0.78275 -1.438491,1.53252 -2.168962,2.28733 -1.237963,1.45663 -2.587872,2.81648 -3.871268,4.23384 -1.378075,1.48924 -2.747649,2.98713 -4.1223317,4.48003 -2.205,-1.24477 -4.410001,-2.48952 -6.615002,-3.73428 0.02774,-8.10555 0.05548,-16.211101 0.08322,-24.316612 C 10.622895,11.231333 17.822221,7.1520808 25.02155,3.0728348 c 4.842108,2.747 9.684217,5.494006 14.526331,8.2410072 z m -6.866802,-1.284589 c -0.28192,1.473577 -1.087943,2.779537 -1.850051,4.049431 -1.841507,2.871528 -4.07421,5.537261 -6.798322,7.6103 -1.426527,1.036286 -3.075123,2.019269 -4.897442,1.976774 -0.526775,0.05776 0.07951,-0.367739 0.185755,-0.574693 2.888557,-3.483036 5.759386,-7.01464 9.126863,-10.052935 1.134398,-1.001259 2.317014,-2.024988 3.575071,-2.752938 0.188004,-0.07888 0.530686,-0.3312322 0.658126,-0.255939 z m 13.909641,5.279197 c 0.01175,8.13432 0.02349,16.268678 0.03523,24.403038 -7.165541,4.07071 -14.331084,8.14142 -21.496625,12.21214 -4.462634,-2.51832 -8.92527,-5.03665 -13.387907,-7.55497 1.398029,-1.48114 2.793231,-2.96493 4.183455,-4.45339 0.03709,1.25706 0.432507,2.48352 1.037061,3.57957 -0.09553,-0.23954 0.241466,0.44279 0.384512,0.55847 1.829846,2.44143 4.902802,3.67122 7.889161,3.79688 4.086676,0.1845 8.047786,-1.42277 11.379227,-3.68676 1.160973,-0.7941 2.272072,-1.66123 3.316094,-2.60401 -0.208615,-0.29747 -0.417793,-0.5894 -0.697779,-0.18565 -3.209419,2.52259 -6.976778,4.55849 -11.088157,5.00758 -2.317341,0.24747 -4.741873,-0.0588 -6.810981,-1.21017 -1.850004,-1.00875 -3.403845,-2.86027 -3.499072,-5.03523 -0.118373,-1.86991 0.983392,-3.56958 2.373681,-4.75943 1.910098,-1.62572 4.261918,-2.68849 6.689541,-3.26427 2.181927,-0.23293 4.374113,-0.48612 6.505253,-1.02271 0.771674,-0.15082 1.168377,-1.17844 0.633719,-1.7791 -0.459508,-0.60024 -1.266355,-0.3597 -1.900172,-0.31639 -1.740332,0.16997 -3.46467,0.48176 -5.169286,0.86018 -0.618729,0.0565 -1.237228,0.11511 -1.857552,0.15129 5.450786,-5.865132 10.884245,-11.746298 16.324116,-17.621536 1.718837,0.974821 3.437668,1.949647 5.156499,2.924468 z M 9.9841673,28.434997 c 0.2963617,0.52578 0.6874687,0.99782 1.1437547,1.39237 -0.683552,0.7574 -1.3815017,1.5061 -2.1520087,2.17657 0.266756,-1.23558 0.597341,-2.47428 0.953841,-3.67136 0.01814,0.0342 0.03628,0.0683 0.05441,0.10242 z" />
  </g>
</svg>
